<?xml version="1.0" encoding="UTF-8"?>
<svg xmlns="http://www.w3.org/2000/svg" version="1.1" viewBox="0 0 612 477">
  <defs>
    <style>
      .cls-1 {
        fill: #1d1c38;
      }

      .cls-2 {
        fill: #f2f2f2;
      }

      .cls-3 {
        fill: #fe23ac;
      }
    </style>
  </defs>
  <!-- Generator: Adobe Illustrator 28.6.0, SVG Export Plug-In . SVG Version: 1.2.0 Build 709)  -->
  <g>
    <g id="Logo">
      <rect id="Fondo" class="cls-1" width="612" height="477"/>
      <g id="Naming">
        <path class="cls-2" d="M327.04,145.7v149.93h-36.52v-89.91l-33.53,89.91h-29.47l-33.74-90.13v90.13h-36.52v-149.93h43.14l42.07,103.79,41.65-103.79h42.93Z"/>
        <path class="cls-2" d="M389.83,311.01c0,14.66-3.7,25.23-11.1,31.71-7.41,6.48-17.73,9.72-30.97,9.72h-14.31v-30.97h8.76c3.99,0,6.83-.78,8.54-2.35,1.71-1.57,2.56-4.13,2.56-7.69v-134.98h36.52v134.55ZM355.76,158.41c-4.06-3.77-6.09-8.44-6.09-13.99s2.03-10.43,6.09-14.2c4.06-3.77,9.29-5.66,15.7-5.66s11.43,1.89,15.48,5.66c4.06,3.78,6.09,8.51,6.09,14.2s-2.03,10.22-6.09,13.99c-4.06,3.77-9.22,5.66-15.48,5.66s-11.64-1.89-15.7-5.66Z"/>
        <path class="cls-3" d="M417.48,291.68c-4.06-3.77-6.09-8.43-6.09-13.99s2.03-10.46,6.09-14.31c4.06-3.84,9.29-5.76,15.7-5.76s11.43,1.92,15.48,5.76c4.06,3.85,6.09,8.62,6.09,14.31s-2.03,10.22-6.09,13.99c-4.06,3.78-9.22,5.66-15.48,5.66s-11.64-1.89-15.7-5.66Z"/>
      </g>
    </g>
  </g>
</svg>