<?xml version="1.0" encoding="UTF-8"?>
<svg id="uuid-b1a873f5-0c63-45ff-871f-b91597415fb3" data-name="Capa_1" xmlns="http://www.w3.org/2000/svg" xmlns:xlink="http://www.w3.org/1999/xlink" viewBox="0 0 99.55 128.21">
  <defs>
    <style>
      .uuid-2432271b-60b1-42b5-8f02-7ed25d00736a {
        fill: url(#uuid-2a358b92-aefa-4173-9e7c-fa7b8a78d00c);
        fill-rule: evenodd;
      }
    </style>
    <linearGradient id="uuid-2a358b92-aefa-4173-9e7c-fa7b8a78d00c" data-name="Degradado sin nombre 3" x1="0" y1="64.11" x2="99.55" y2="64.11" gradientUnits="userSpaceOnUse">
      <stop offset="0" stop-color="#ff53bc"/>
      <stop offset=".37" stop-color="#fe40b5"/>
      <stop offset="1" stop-color="#fe23ac"/>
    </linearGradient>
  </defs>
  <path class="uuid-2432271b-60b1-42b5-8f02-7ed25d00736a" d="M86.13,92.37c-.56.45-.6.66-.67,3.83-.08,3.11-.04,3.4.46,4.03.39.5.76.68,1.38.68s.98-.18,1.38-.68c.5-.63.53-.92.46-4.03-.08-3.17-.11-3.37-.67-3.83-.33-.26-.85-.48-1.16-.48s-.84.22-1.16.48M59.18,54.67l-1.56.77v6.69s0,6.69,0,6.69l.69-.11,1.63-.26.94-.15v-7.25c0-3.99-.03-7.23-.06-7.21-.03.02-.77.39-1.62.81M50.85,61.1v7.23l.94.15,1.63.26.69.11v-6.69s-.01-6.69-.01-6.69l-1.62-.79-1.62-.79v7.23ZM64.79,39.25c-.65.71-.53,1.92.25,2.53.61.48.99.52,4.9.52,4.16,0,4.25-.01,4.85-.61.75-.75.79-1.61.1-2.34-.49-.53-.7-.55-5.1-.55-4.12,0-4.63.05-5,.46M36.83,39.47c-.37.47-.49.87-.38,1.32.32,1.31.56,1.38,5.21,1.47,4.1.07,4.36.05,5-.46.49-.39.68-.76.68-1.35,0-1.54-.37-1.65-5.45-1.65h-4.53l-.53.68ZM64.45,29.34c-2.63,2.63-3.08,3.19-3.08,3.86,0,.88.95,1.82,1.84,1.82.79,0,6.93-6.23,6.93-7.03,0-1.06-.66-1.74-1.69-1.74-.84,0-1.18.27-3.99,3.08M41.97,26.82c-.82,1.17-.56,1.63,2.81,5.01,2.53,2.53,3.35,3.2,3.88,3.2.92,0,1.68-.82,1.68-1.81,0-.69-.42-1.22-3.08-3.88-2.81-2.81-3.16-3.08-3.99-3.08-.66,0-1.02.15-1.3.56M54.65,21.58c-.52.55-.54.81-.54,4.99v4.41l.66.52c.36.29.85.52,1.09.52s.73-.23,1.09-.52l.66-.52v-4.45c0-4.32-.02-4.46-.58-4.99-.75-.71-1.7-.69-2.38.04M50.32,15.75c-10.74,2.32-19,10.89-20.88,21.65-1.84,10.53,2.93,21.42,11.88,27.15,1.56,1,5.51,2.9,5.68,2.73.06-.06.18-4.42.27-9.69l.16-9.58,1.62-1.98c1.75-2.14,2.48-2.54,3.54-1.94.48.27.66.6.72,1.3.07.8-.08,1.13-.97,2.2-.93,1.11-1.02,1.33-.78,1.86.63,1.38,3.52,2.82,4.98,2.48,1.1-.26,2.73-1.28,3.41-2.14l.62-.79-3.11-3.78c-1.71-2.08-3.18-4.05-3.26-4.37-.33-1.29.83-2.31,2.23-1.96.6.15,7.35,8.19,7.88,9.38.22.49.3,3.27.31,9.89,0,5.06.08,9.21.16,9.21s1.11-.45,2.28-1c5.71-2.68,9.95-6.81,12.73-12.4,7.2-14.5.21-31.79-15.08-37.28-4.12-1.48-10.05-1.86-14.39-.92M49.97,12.25c-16.19,3.4-26.67,18.54-24.05,34.71,1.8,11.07,9.81,20.43,20.48,23.92,17.36,5.67,35.59-5.03,39.26-23.05.63-3.07.68-8.04.12-11.08-2.33-12.6-12.03-22.3-24.63-24.63-2.94-.54-8.29-.49-11.18.12M49.85.34c-7.73,1.06-14.67,4.2-20.93,9.45-6.7,5.62-11.8,14.24-13.63,23.04-.76,3.65-1,7.28-1,15.03v7.2s-7.14,11.65-7.14,11.65c-5.04,8.23-7.14,11.86-7.14,12.38s.22.9.66,1.25c.63.49.97.52,6.74.52h6.08l.1,6.95c.11,7.94.22,8.47,2.1,10.56,2.08,2.31,2.37,2.38,10.87,2.53,6.2.11,7.51.2,8.14.54.97.53,1.78,1.4,2.11,2.29.17.46.27,4.59.27,11.93,0,10.97.01,11.24.52,11.88l.52.66h50.03l.52-.66c.5-.64.52-.94.52-8.86s-.02-8.22-.52-8.86c-.72-.91-2-.91-2.72,0-.5.63-.52.96-.52,7.77v7.11h-44.84v-10.48c0-8.96-.06-10.65-.4-11.66-.55-1.61-2.51-3.7-4.16-4.45-1.27-.57-1.62-.6-8.75-.72-7.01-.12-7.47-.16-8.13-.65-.38-.28-.92-.83-1.21-1.21-.49-.66-.52-1.1-.64-8.91-.12-7.63-.16-8.26-.6-8.75-.46-.51-.7-.53-6.07-.53-3.08,0-5.6-.1-5.6-.21s2.87-4.91,6.39-10.64l6.39-10.43v-7.87c0-4.33.12-9.03.26-10.46,1.69-16.7,13.58-30.06,29.87-33.58,3.44-.74,10.96-.8,15.04-.12,18.34,3.07,30.83,15.4,32.99,32.57.42,3.31.18,9.03-.51,12.3-.95,4.52-1.97,7.11-5.23,13.35-2.79,5.34-4.49,11.9-4.61,17.8-.05,2.71-.03,2.86.54,3.32.75.61,1.57.61,2.31.02.53-.43.59-.74.76-3.82.35-6.34,1.58-10.57,5.09-17.51,2.53-5.01,3.8-8.4,4.7-12.52.5-2.3.57-3.34.57-8.39s-.07-6.09-.56-8.32C95,14.54,80.51,2.29,60.4.23c-3.36-.34-7.56-.3-10.56.11"/>
</svg>