<?xml version="1.0" encoding="UTF-8"?>
<svg id="uuid-5ebff721-488c-4e4f-939a-a16d8b5c9330" data-name="Capa_1" xmlns="http://www.w3.org/2000/svg" xmlns:xlink="http://www.w3.org/1999/xlink" viewBox="0 0 69.86 87.55">
  <defs>
    <style>
      .uuid-4affec57-b0bf-489f-9c22-5aa3bfe6e578 {
        fill: url(#uuid-342e2318-37ae-4146-aaf1-525dfc580d7a);
        fill-rule: evenodd;
      }
    </style>
    <linearGradient id="uuid-342e2318-37ae-4146-aaf1-525dfc580d7a" data-name="Degradado sin nombre 4" x1="0" y1="43.77" x2="69.86" y2="43.77" gradientUnits="userSpaceOnUse">
      <stop offset="0" stop-color="#ff53bc"/>
      <stop offset=".42" stop-color="#fe41b6"/>
      <stop offset="1" stop-color="#fe23ac"/>
    </linearGradient>
  </defs>
  <path class="uuid-4affec57-b0bf-489f-9c22-5aa3bfe6e578" d="M50.52,65.92c-2.16,1.13-2.23,1.41-2.23,9.23v6.57l7.24-7.32c3.98-4.03,7.52-7.66,7.87-8.08l.64-.76h-6.41c-5.35,0-6.52.06-7.11.37M14.89,62.74c-.6.67-.55,1.84.11,2.38.5.4,1.16.43,10.44.43s9.92-.01,10.52-.49c.76-.59.82-1.65.15-2.33-.45-.45-.78-.47-10.63-.47s-10.17.01-10.59.47M15,51.92c-.36.29-.53.68-.53,1.21s.17.92.53,1.21c.51.41,1.43.43,19.94.43s19.43-.02,19.93-.43c.73-.59.73-1.83,0-2.42-.51-.41-1.43-.43-19.93-.43s-19.43.02-19.94.43M1.03,47.74c-.84.34-1.01,1-1.01,3.97,0,2.52.05,2.88.47,3.3.26.26.78.47,1.17.47s.91-.21,1.17-.47c.42-.42.47-.78.47-3.41,0-2.81-.03-2.97-.58-3.52-.61-.61-.88-.67-1.69-.34M15.48,40.87c-.97.35-1.28,2.03-.51,2.73.39.35,2.12.39,20,.39,19.32,0,19.58,0,20-.47.6-.67.55-1.84-.11-2.38-.51-.41-1.41-.43-19.79-.41-10.59.01-19.41.08-19.6.14M36.34,14.22c-.26.26-.47.71-.47,1.01,0,.84,5.76,13.81,6.34,14.28.68.55,1.25.52,1.94-.12.63-.59,6.25-13.27,6.25-14.11,0-.68-.93-1.53-1.67-1.53-.32,0-.8.24-1.06.53-.26.29-1.36,2.56-2.43,5.04-1.08,2.48-2.02,4.51-2.1,4.51s-1.02-2.03-2.1-4.51c-1.08-2.48-2.17-4.75-2.43-5.04-.59-.66-1.64-.69-2.26-.06M24.47,14.07c-2.09.69-4.14,2.52-5.08,4.56-.72,1.56-.72,4.85,0,6.42.76,1.66,2.42,3.3,4.12,4.07,1.21.55,1.79.67,3.34.67,1.66,0,2.06-.08,3.44-.76,1.61-.79,2.76-1.88,2.76-2.62,0-.23-.22-.7-.49-1.04-.64-.81-1.52-.8-2.69.05-.51.37-1.28.79-1.72.94-3.87,1.31-7.5-3.12-5.57-6.78,1.44-2.72,4.83-3.35,7.32-1.37.48.38,1.12.69,1.43.69.69,0,1.71-.97,1.71-1.62,0-.74-1.25-1.97-2.71-2.69-1.62-.79-4.32-1.03-5.88-.52M5.76.14C3.64.66,1.73,2.18.79,4.09l-.66,1.34-.07,17.87-.07,17.87.58.58c.74.74,1.41.74,2.14,0l.58-.58v-17.53s0-17.53,0-17.53l.53-.93c.3-.52.94-1.16,1.46-1.46l.93-.53s57.21.05,57.84.31c.91.39,1.92,1.43,2.26,2.33.17.45.25,9.41.25,28.54v27.88h-7.91c-6.95,0-8.05.05-9.06.41-1.55.56-3.25,2.13-4.05,3.76l-.66,1.34-.07,8.26-.07,8.26h-18.91c-11.69,0-19.23-.09-19.74-.23-.94-.26-2.18-1.44-2.55-2.42-.16-.43-.25-4.06-.25-10.25,0-9.28-.02-9.61-.47-10.06-.61-.61-1.74-.6-2.35,0-.47.47-.48.68-.41,10.72q.07,10.24.62,11.3c.75,1.44,2.03,2.73,3.43,3.48l1.17.62,20.62.07c11.34.04,20.84.01,21.11-.05.27-.07,5.52-5.24,11.66-11.49l11.18-11.38-.06-29.71-.06-29.7-.62-1.17c-.75-1.4-2.04-2.68-3.48-3.43l-1.05-.55L35.52,0C19.54-.02,6.14.04,5.76.14"/>
</svg>