<?xml version="1.0" encoding="UTF-8"?>
<svg xmlns="http://www.w3.org/2000/svg" version="1.1" viewBox="0 0 163.47 155.7">
  <defs>
    <style>
      .cls-1 {
        fill: #f2f2f2;
      }

      .cls-2 {
        fill: #fe23ac;
      }

      .cls-3 {
        display: none;
        fill: #1d1c38;
      }
    </style>
  </defs>
  <!-- Generator: Adobe Illustrator 28.6.0, SVG Export Plug-In . SVG Version: 1.2.0 Build 709)  -->
  <g>
    <g id="Logo">
      <rect id="Fondo" class="cls-3" width="256" height="256"/>
      <g id="Naming">
        <path class="cls-1" d="M98.41,39.68v62.36h-15.19v-37.4l-13.95,37.4h-12.26l-14.04-37.49v37.49h-15.19v-62.36h17.94l17.5,43.17,17.32-43.17h17.86Z"/>
        <path class="cls-1" d="M124.53,108.43c0,6.1-1.54,10.5-4.62,13.19-3.08,2.69-7.37,4.04-12.88,4.04h-5.95v-12.88h3.64c1.66,0,2.84-.33,3.55-.98.71-.65,1.07-1.72,1.07-3.2v-56.14h15.19v55.96ZM110.36,44.96c-1.69-1.57-2.53-3.51-2.53-5.82s.84-4.34,2.53-5.91c1.69-1.57,3.86-2.35,6.53-2.35s4.75.79,6.44,2.35c1.69,1.57,2.53,3.54,2.53,5.91s-.84,4.25-2.53,5.82c-1.69,1.57-3.84,2.35-6.44,2.35s-4.84-.78-6.53-2.35Z"/>
        <path class="cls-2" d="M136.03,100.39c-1.69-1.57-2.53-3.51-2.53-5.82s.84-4.35,2.53-5.95c1.69-1.6,3.86-2.4,6.53-2.4s4.75.8,6.44,2.4c1.69,1.6,2.53,3.58,2.53,5.95s-.84,4.25-2.53,5.82c-1.69,1.57-3.83,2.35-6.44,2.35s-4.84-.78-6.53-2.35Z"/>
      </g>
    </g>
  </g>
</svg>